<?xml version="1.0" encoding="utf-8"?>
<!-- Generator: Adobe Illustrator 24.1.1, SVG Export Plug-In . SVG Version: 6.00 Build 0)  -->
<svg version="1.1" id="Layer_1" xmlns="http://www.w3.org/2000/svg" xmlns:xlink="http://www.w3.org/1999/xlink" x="0px" y="0px"
	 viewBox="0 0 512 512" style="enable-background:new 0 0 512 512;" xml:space="preserve">
<g>
	<path d="M350,117.4c-2.5,0-4.2,0.3-5.8,0.8v0.3h0.3c1.2,2.2,3.1,3.8,4.6,5.8c1.2,2.3,2.2,4.6,3.3,6.8l0.3-0.3c2-1.4,3-3.7,3-7.1
		l-1.8-3L350,117.4z M123.1,398.9h-19.7c-0.7-33.3-2.7-64.7-5.7-94.1h-0.2l-30.1,94.1H52.3l-29.8-94.1h-0.3
		c-2.2,28.2-3.6,59.6-4.2,94.1H0c1.2-42,4.1-81.3,8.8-118h24.5l28.5,86.7h0.2l28.8-86.7H114C119.2,323.9,122.2,363.2,123.1,398.9
		L123.1,398.9z M208.7,311.8c-8,43.7-18.7,75.4-31.7,95.2c-10.3,15.3-21.6,22.9-33.8,22.9c-3.2,0-7.2-1-12.1-3v-10.5
		c2.4,0.3,5.2,0.6,8.3,0.6c5.7,0,10.3-1.7,13.8-4.8c4.2-3.8,6.3-8.2,6.3-12.9c0-3.3-1.6-10-4.9-20.2l-21.6-67.3h19.4l15.5,50.3
		c3.5,11.5,5,19.4,4.3,24c8.6-22.7,14.5-47.5,17.8-74.3H208.7z M471.7,398.9h-56.2v-118h18.9v103.5h37.3V398.9z M400.9,401.7
		L379.2,391c1.9-1.6,3.7-3.3,5.4-5.3c9.3-10.8,13.8-26.8,13.8-48c0-39.1-15.3-58.6-46-58.6c-15,0-26.8,4.9-35.2,14.8
		c-9.2,10.8-13.8,26.8-13.8,47.9c0,20.8,4.1,35.9,12.3,45.7c7.5,8.7,18.8,13.1,33.8,13.1c5.6,0,10.8-0.7,15.4-2.1l28.3,16.5
		l7.7-13.3L400.9,401.7z M330.7,375.2c-4.8-7.7-7.2-20-7.2-37c0-29.8,9-44.6,27.1-44.6c9.4,0,16.4,3.6,20.8,10.7
		c4.8,7.7,7.2,19.9,7.2,36.8c0,29.9-9.1,45-27.1,45c-9.5,0-16.4-3.6-20.9-10.7L330.7,375.2z M295.3,366.2c0,10-3.7,18.3-11.1,24.6
		c-7.3,6.4-17.1,9.7-29.5,9.7c-11.6,0-22.7-3.7-33.6-11l5.1-10.2c9.3,4.7,17.7,7,25.4,7c7.1,0,12.7-1.6,16.7-4.7
		c4-3.2,6.4-7.6,6.4-13.2c0-7-4.9-13-13.8-18c-8.3-4.6-24.8-14-24.8-14c-9-6.6-13.4-13.6-13.4-25.2c0-9.6,3.3-17.3,10-23.1
		c6.8-6,15.3-8.9,26-8.9c10.9,0,20.9,2.9,29.9,8.8l-4.6,10.2c-7.7-3.3-15.3-4.9-22.7-4.9c-6.1,0-10.8,1.5-14,4.4
		c-3.3,2.9-5.3,6.6-5.3,11.2c0,7,5,13,14.2,18.2c8.4,4.6,25.3,14.3,25.3,14.3C290.8,347.8,295.4,354.8,295.3,366.2L295.3,366.2z
		 M495.4,241.3c-11.4-0.3-20.3,0.9-27.7,4.1c-2.1,0.8-5.5,0.8-5.8,3.5c1.2,1.2,1.3,3,2.3,4.6c1.7,2.8,4.7,6.7,7.4,8.7
		c3,2.3,6,4.7,9.1,6.7c5.6,3.4,11.8,5.4,17.3,8.8c3.1,2,6.3,4.6,9.3,6.7c1.6,1.1,2.6,3,4.6,3.7v-0.4c-1-1.3-1.3-3.1-2.3-4.6
		l-4.3-4.1c-4.2-5.6-9.2-10.4-14.8-14.4c-4.6-3.1-14.6-7.4-16.4-12.7l-0.3-0.3c3.1-0.3,6.8-1.4,9.7-2.3c4.8-1.3,9.3-1,14.3-2.3
		c2.3-0.6,4.5-1.3,6.8-2v-1.3c-2.6-2.6-4.5-6.1-7.2-8.5c-7.3-6.3-15.3-12.4-23.5-17.5c-4.5-2.9-10.2-4.8-14.9-7.2
		c-1.7-0.8-4.6-1.3-5.5-2.7c-2.6-3.2-4.1-7.3-5.9-11c-4.1-7.8-8.1-16.5-11.7-24.8c-2.6-5.6-4.1-11.1-7.3-16.3
		c-14.7-24.3-30.7-38.9-55.2-53.3c-5.2-3-11.6-4.3-18.3-5.8c-3.6-0.2-7.1-0.4-10.7-0.6c-2.3-1-4.6-3.7-6.6-5
		c-8.2-5.2-29.2-16.3-35.1-1.6c-3.8,9.3,5.7,18.4,9,23.1c2.4,3.3,5.5,7,7.2,10.7c1,2.5,1.3,5.1,2.3,7.7c2.3,6.3,4.4,13.2,7.4,19.1
		c1.6,3,3.3,6.2,5.3,8.8c1.2,1.6,3.2,2.3,3.6,4.8c-2,2.9-2.2,7.2-3.3,10.7c-5.2,16.2-3.2,36.1,4.1,48c2.3,3.6,7.8,11.4,15,8.4
		c6.4-2.6,5-10.7,6.8-17.8c0.4-1.8,0.2-2.8,1-4v0.3c2.1,4,4.1,7.8,5.9,11.8c4.3,7,12.1,14.3,18.5,19.1c3.4,2.6,6.1,7,10.3,8.6v-0.4
		h-0.3l-3.3-2.8c-2.6-2.6-5.4-5.7-7.5-8.6c-5.9-8-11.3-16.8-15.9-25.9c-2.3-4.5-4.3-9.3-6.2-13.7c-0.8-1.7-0.8-4.3-2.3-5.1
		c-2.2,3.1-5.3,5.8-6.8,9.7c-2.8,6.1-3,13.7-4.1,21.5l-0.5,0.3c-4.6-1.2-6.2-5.8-7.8-9.8c-4.3-10.2-5-26.4-1.3-38.1
		c1-3,5.3-12.4,3.6-15.3c-0.9-2.8-3.7-4.3-5.3-6.5c-1.9-2.7-3.8-6.1-5.2-9.1c-3.4-8-5.1-16.8-8.8-24.8c-1.7-3.7-4.7-7.5-7.1-10.9
		c-2.8-3.8-5.7-6.6-7.8-11.1c-0.8-1.6-1.7-4.2-0.6-5.8l2-1.9c1.8-1.6,7.2,0.4,9,1.3c5.2,2.1,9.7,4.1,14.1,7.1c2,1.4,4.2,4.1,6.8,4.8
		h3c4.6,1,9.7,0.3,13.9,1.6c7.6,2.4,14.4,5.9,20.6,9.8c18.7,11.9,34,28.8,44.4,48.8c1.7,3.3,2.5,6.3,4.1,9.7
		c2.9,7.1,6.7,14.2,9.7,20.9c3,6.8,5.8,13.6,10.2,19.2c2.2,3,10.7,4.6,14.6,6.1c2.8,1.3,7.3,2.5,9.8,4c4.9,3,9.7,6.4,14.3,9.7
		C487.9,234.8,495,238.4,495.4,241.3L495.4,241.3z"/>
</g>
</svg>
