<?xml version="1.0" encoding="utf-8"?>
<!-- Generator: Adobe Illustrator 24.1.1, SVG Export Plug-In . SVG Version: 6.00 Build 0)  -->
<svg version="1.1" id="Layer_1" xmlns="http://www.w3.org/2000/svg" xmlns:xlink="http://www.w3.org/1999/xlink" x="0px" y="0px"
	 viewBox="0 0 512 512" style="enable-background:new 0 0 512 512;" xml:space="preserve">
<style type="text/css">
	.st0{fill:#FF0101;}
	.st1{fill:#0101FF;}
	.st2{fill:#01FF01;}
	.st3{fill:#050505;}
</style>
<g>
	<path class="st0" d="M205.4,180.3c-37.9-21.9-56.3-66.4-45-108.7C171.7,29.4,210,0,253.7,0c43.7,0,82,29.4,93.3,71.6
		s-7.1,86.8-45,108.7l-29.1-50.4c15.1-8.7,22.4-26.4,17.9-43.2c-4.5-16.8-19.7-28.5-37.1-28.5c-17.4,0-32.6,11.7-37.1,28.5
		c-4.5,16.8,2.8,34.5,17.9,43.2L205.4,180.3z"/>
	<path class="st1" d="M412.2,203.6c37.9,21.9,56.3,66.4,45,108.7c-11.3,42.2-49.6,71.6-93.3,71.6c-43.7,0-82-29.4-93.3-71.6
		c-11.3-42.2,7.1-86.8,45-108.7l29.1,50.4c-15.1,8.7-22.4,26.4-17.9,43.2c4.5,16.8,19.7,28.5,37.1,28.5c17.4,0,32.6-11.7,37.1-28.5
		c4.5-16.8-2.8-34.5-17.9-43.2L412.2,203.6z"/>
	<path class="st2" d="M242.1,287.3c0,43.7-29.4,82-71.6,93.3c-42.2,11.3-86.8-7.1-108.7-45C40,297.7,46.3,249.9,77.2,219
		c30.9-30.9,78.7-37.2,116.6-15.4L164.7,254c-15.1-8.7-34.1-6.2-46.4,6.1c-12.3,12.3-14.8,31.3-6.1,46.4
		c8.7,15.1,26.4,22.4,43.2,17.9c16.8-4.5,28.5-19.7,28.5-37.1H242.1z"/>
	<path class="st3" d="M76.5,407.1c8.2-0.7,16.4-0.7,24.6,0.4c5,0.9,10.3,2.2,14.1,5.8c3.9,4.4,4.9,10.5,5.8,16.2
		c1.4,11.7,1.3,23.6,0,35.3c-0.8,5.7-1.7,11.9-5.4,16.5c-4.1,4.1-10.1,5.3-15.7,6.2c-8.2,1-16.5,1.3-24.7,0.4
		c-5.6-0.6-11.4-1.5-16.1-4.7c-3.1-1.9-4.7-5.4-5.8-8.7c-2.2-6.9-2.5-14.3-2.8-21.5c0-9.5,0.1-19.2,2-28.5c1-4.4,2.2-9.2,5.9-12.1
		C63.6,408.6,70.2,407.7,76.5,407.1z M77.8,420.1c-3.4,0.5-7.7,0.8-9.8,4c-1.8,4.8-1.7,10-2.1,15c-0.2,9-0.6,18,0.8,26.9
		c0.5,3,1.6,6.6,4.9,7.5c7.2,2.2,15,1.8,22.4,1.4c3.7-0.6,8.6-0.9,10.5-4.8c2.1-5.9,1.9-12.3,2.2-18.5c-0.1-8.7,0.4-17.6-1.7-26.1
		c-0.5-3-3.6-4.3-6.3-4.8C91.8,419.4,84.8,419.6,77.8,420.1z M150.9,434.2c5-3.2,11.1-3.7,16.9-3.1c5.3,0.5,11.3,2.3,14.1,7.2
		c3.4,6.2,3.6,13.5,3.8,20.4c-0.2,7.1-0.3,14.5-3.2,21.1c-1.7,4-5.5,6.6-9.6,7.7c-6.3,1.5-13.2,1.7-19.3-0.8
		c-3.3-1.3-5.5-4.1-7.4-6.9V512h-13.9c0-26.8,0-53.6,0-80.4c4.5,0,9,0,13.5,0c-0.2,2.8-0.3,5.5-0.4,8.3
		C147.1,437.8,148.6,435.6,150.9,434.2z M155.4,441.4c-3.3,0.3-6.9,1.9-7.8,5.3c-1.8,6.1-1.5,12.5-1.2,18.8
		c0.4,4.1,0.9,9.3,5.3,11.2c4.7,1.8,10.1,1.7,14.8,0.2c4.1-1.4,4.7-6.3,5.1-10c0.4-6.2,0.6-12.4-0.6-18.5c-0.4-2.4-1.6-4.8-3.9-5.8
		C163.4,441,159.3,441.1,155.4,441.4z M202.3,434.3c6.8-3.5,14.8-3.6,22.3-3.3c6.2,0.5,13.8,1.6,17.2,7.5c3.9,7.2,3.2,15.7,3.8,23.5
		h-37.9c0.4,4.1-0.1,8.5,2,12.2c1.8,2.9,5.5,3.5,8.6,3.7c3.9,0,8.1,0.3,11.7-1.5c2.1-1.6,2.1-4.5,2.3-6.8c4.4,0,8.9,0,13.3,0
		c-0.2,4.6-0.8,9.8-4.5,13.1c-5.6,5-13.6,5.5-20.7,5.7c-6.3-0.2-13-0.5-18.6-3.6c-4.6-2.7-6-8.2-6.8-13.1c-1-7.3-1.3-14.6-0.4-21.9
		C195.2,444,196.8,437.3,202.3,434.3z M210.4,443.1c-2.9,2.6-2.6,7-2.7,10.6c8.2,0,16.3,0,24.5,0c0-3.2,0.3-6.8-1.4-9.6
		c-1.7-2.3-4.9-2.5-7.6-2.8C218.9,441.3,214.2,440.8,210.4,443.1z M275.1,434.2c4.8-3.3,11-3.8,16.6-3.1c4.8,0.5,9.9,2.3,12.7,6.5
		c2.5,3.4,3.2,7.8,3.3,12c0,12.7,0,25.4,0,38.1c-4.4,0-8.8,0-13.2,0c0-12,0-24.1,0-36.1c-0.1-2.6,0-5.7-2-7.7
		c-2.1-2.3-5.4-2.7-8.4-2.7c-3.6,0-7.4,0.6-10.2,3.1c-2.7,2.3-3.7,6-3.7,9.4c0,11.3,0,22.7,0,34c-4.4,0-8.8,0-13.2,0
		c0-18.7,0-37.4,0-56.2c4.3,0,8.6,0,12.9,0c0,3.3-0.3,6.6-0.4,9.8C271.1,438.7,272.6,435.9,275.1,434.2z M331.6,409.6
		c7.3-2.4,15-2.8,22.6-3.1c7.4,0,15.1,0.1,21.9,3.1c3.5,1.5,5.9,4.6,7.1,8.2c1.9,5.3,2,11,2,16.5c-5.1,0-10.1,0-15.2,0
		c-0.1-3.9,0.2-8.3-2.2-11.6c-2.4-2.5-6.3-2.5-9.5-2.9c-6.6-0.1-13.4-0.5-19.8,1.7c-2.3,0.7-3.5,3-3.9,5.2
		c-1.3,5.9-1.3,11.9-1.3,17.9c0.1,8,0,16.2,1.7,24c0.5,2.9,3.1,4.7,5.8,5.3c6.2,1.5,12.6,1.3,18.9,0.9c3.3-0.4,7.3-0.6,9.3-3.7
		c2.2-3.6,1.8-8,1.7-12c5.1,0,10.2,0,15.3,0c-0.1,6.4-0.2,13-2.5,19c-1.2,3.2-3.7,5.8-6.8,7c-6.3,2.5-13.1,2.7-19.8,3.1
		c-7.7,0.1-15.5-0.1-23-1.9c-4.4-1.2-9.2-3.2-11.3-7.6c-2.6-5.8-3.1-12.3-3.8-18.5c-0.6-8.3-0.9-16.5-0.7-24.8
		c0.4-6.7,1-13.7,4.6-19.6C324.8,412.9,328.1,410.8,331.6,409.6z M388.6,407.3c5.3,0,10.6-0.1,15.8,0.1c5.1,16.3,10.8,32.4,16,48.7
		c2,6.3,3.4,12.7,5.5,18.9c2.3-6.7,3.8-13.7,6.1-20.5c5.1-15.7,10.3-31.4,15.3-47.2c5.2-0.2,10.4,0,15.7-0.1v1.7
		c-8.6,26.2-17,52.4-25.4,78.6c-7.9,0.2-15.7,0.2-23.6,0C405.8,460.8,397,434.1,388.6,407.3z"/>
</g>
</svg>
