<?xml version="1.0" encoding="utf-8"?>
<!-- Generator: Adobe Illustrator 24.1.1, SVG Export Plug-In . SVG Version: 6.00 Build 0)  -->
<svg version="1.1" id="Layer_1" xmlns="http://www.w3.org/2000/svg" xmlns:xlink="http://www.w3.org/1999/xlink" x="0px" y="0px"
	 viewBox="0 0 512 512" style="enable-background:new 0 0 512 512;" xml:space="preserve">
<g>
	<path d="M256.1,0L105.7,150.5c-40,39.6-62.5,93.4-62.5,149.6s22.5,110,62.5,149.6c39.4,39.9,93.4,62.4,149.6,62.4
		s110-22.5,149.5-62.4c85-83.3,85-217.7,1.8-299.1l-37.2,37.1c61.9,61.9,61.9,162.8,0,224.8c-62,61.9-162.8,61.9-224.8,0
		c-62-62-62-162.9,0-224.8l99.2-99.1l12.5-14.2L256.1,0z M332.3,83.2c-15.6,0-28.3,12.7-28.3,28.3s12.7,28.2,28.3,28.2
		c15.6,0,28.3-12.6,28.3-28.2S347.9,83.2,332.3,83.2z"/>
</g>
</svg>
